<svg width="1251" height="682" viewBox="0 0 1251 682" fill="none" xmlns="http://www.w3.org/2000/svg">
<g filter="url(#filter0_d_321_3)">
<path d="M525.953 263.428V531.37C525.953 551.087 542.403 567.069 562.695 567.069H990.043C1010.33 567.069 1026.78 551.087 1026.78 531.37V263.428H525.953Z" fill="url(#paint0_linear_321_3)"/>
<path d="M793.213 114.451C782.646 107.72 770.092 107.72 759.525 114.451L525.435 263.551L776.369 422.945L901.836 343.152L1027.3 263.551L793.213 114.451Z" fill="url(#paint1_linear_321_3)"/>
<path d="M535.765 555.489C535.551 555.491 535.344 555.408 535.184 555.258C535.097 555.177 535.026 555.08 534.974 554.97C534.923 554.86 534.893 554.741 534.886 554.619C534.879 554.497 534.896 554.375 534.934 554.26C534.972 554.144 535.032 554.038 535.11 553.947L691.597 368.586C691.754 368.414 691.969 368.313 692.196 368.304C692.422 368.294 692.643 368.377 692.813 368.536C692.983 368.694 693.088 368.916 693.106 369.154C693.125 369.392 693.055 369.628 692.912 369.813L536.425 555.179C536.342 555.277 536.24 555.355 536.126 555.409C536.013 555.462 535.89 555.49 535.765 555.489Z" fill="white"/>
<path d="M1016.97 555.489C1016.85 555.49 1016.72 555.462 1016.61 555.409C1016.5 555.355 1016.4 555.277 1016.31 555.179L859.825 369.817C859.743 369.728 859.679 369.621 859.636 369.504C859.594 369.388 859.575 369.263 859.579 369.138C859.584 369.013 859.612 368.891 859.663 368.778C859.714 368.665 859.786 368.564 859.875 368.481C859.963 368.398 860.067 368.335 860.18 368.296C860.292 368.256 860.411 368.241 860.53 368.251C860.648 368.261 860.763 368.297 860.868 368.355C860.973 368.413 861.066 368.493 861.14 368.59L1017.62 553.952C1017.7 554.043 1017.76 554.149 1017.8 554.264C1017.83 554.379 1017.85 554.502 1017.84 554.624C1017.84 554.745 1017.81 554.865 1017.75 554.974C1017.7 555.084 1017.63 555.182 1017.54 555.262C1017.39 555.409 1017.18 555.49 1016.97 555.489Z" fill="white"/>
<path d="M587.539 290.793C582.986 304.727 565.688 287.464 565.688 290.793V422.63H987.225V290.793H587.539Z" fill="#947B21" fill-opacity="0.3"/>
<path d="M932.155 108H581.584C575.402 108 570.283 113.643 570.283 120.156V419.674H982.438V161.778L932.155 108Z" fill="#FFD43B"/>
<path d="M982.443 164.594L934.695 164.973C934.101 164.979 933.514 164.85 932.97 164.594C932.426 164.338 931.938 163.962 931.538 163.489C930.638 162.521 930.548 161.214 930.548 159.846V108.07H932.143L960.592 138.57L982.443 161.787V164.594Z" fill="#A2681D" fill-opacity="0.4"/>
<path d="M982.251 161.778L936.25 162.215C935.678 162.22 935.112 162.099 934.588 161.859C934.064 161.619 933.594 161.265 933.209 160.821C932.342 159.913 932.255 158.685 932.255 157.401V108.367L982.251 161.778Z" fill="#E69122"/>
<path d="M867.293 248.892C867.293 260.152 865.585 270.454 862.17 279.795C858.754 289.137 853.926 296.467 847.686 301.788C841.447 307.108 834.204 309.766 825.959 309.763C820.466 309.763 815.602 308.376 811.368 305.601C807.312 303.038 804.12 299.203 802.241 294.633H800.457C792.436 304.723 782.223 309.766 769.818 309.763C756.675 309.763 746.314 305.601 738.735 297.276C731.157 288.95 727.369 277.553 727.372 263.083C727.372 246.581 732.351 233.288 742.308 223.204C752.265 213.12 765.264 208.077 781.306 208.074C788.381 208.134 795.441 208.781 802.419 210.009C810.083 211.299 816.405 212.839 821.383 214.63L818.823 271.99C818.823 282.857 821.646 288.291 827.291 288.291C832.04 288.291 835.828 284.636 838.654 277.327C841.481 270.018 842.892 260.458 842.886 248.647C842.886 236.059 840.397 224.935 835.418 215.276C830.672 205.864 823.358 198.163 814.417 193.166C805.395 188.085 795.09 185.544 783.501 185.544C768.499 185.544 755.465 188.789 744.399 195.28C733.332 201.771 724.851 211.133 718.954 223.366C713.052 235.596 710.099 249.729 710.097 265.765C710.097 287.346 715.574 303.905 726.53 315.442C737.485 326.979 753.361 332.746 774.158 332.743C782.027 332.743 790.678 331.824 800.112 329.987C809.595 328.135 818.913 325.446 827.967 321.95V344.471C812.075 351.588 794.434 355.146 775.046 355.146C746.834 355.146 724.832 347.326 709.039 331.686C693.246 316.046 685.355 294.308 685.366 266.473C685.366 247.158 689.394 229.622 697.451 213.866C705.508 198.109 716.986 185.754 731.886 176.799C746.777 167.845 763.916 163.369 783.302 163.372C799.639 163.372 814.233 166.89 827.084 173.925C839.934 180.96 849.849 190.97 856.83 203.955C863.808 216.945 867.296 231.924 867.293 248.892ZM753.202 263.551C753.202 280.053 759.59 288.302 772.365 288.299C779.05 288.299 784.138 285.824 787.629 280.874C791.119 275.924 793.235 267.85 793.976 256.654L795.428 230.73C791.212 229.826 786.916 229.394 782.613 229.442C773.333 229.442 766.11 232.492 760.944 238.592C755.777 244.693 753.199 253.012 753.211 263.551H753.202Z" fill="#111827"/>
</g>
<path d="M957.717 499.498C957.717 499.498 952.048 492.345 959.753 487.936C967.459 483.527 979.562 488.363 981.093 497.742C982.624 507.121 990.28 501.551 993.62 499.498C996.96 497.445 1006.28 494.662 1008.66 505.356C1009.6 509.597 1008.41 515.009 1010.16 518.952C1012.56 524.378 1020.39 522.977 1024.66 525.05C1030.22 527.751 1033.12 532.971 1030.23 539.059C1025.78 548.433 1017.01 554.411 1021.74 562.567C1026.47 570.723 1007.4 589.04 1000.87 572.042C994.326 555.044 984.165 557.923 975.953 556.853C967.742 555.783 963.568 548.304 965.796 540.685C968.024 533.067 965.099 528.528 962.041 525.304C958.983 522.08 948.671 508.143 957.717 499.498Z" fill="url(#paint2_linear_321_3)"/>
<path d="M945.791 590.685C945.791 590.685 939.612 591.698 932.663 596.586C932.125 596.961 931.697 597.485 931.426 598.101C931.156 598.717 931.054 599.401 931.132 600.074C931.966 607.012 935.388 629.474 946.671 651.408C947.261 652.569 947.439 653.913 947.172 655.198L945.212 664.794L941.567 668.382H950.931L957.165 650.631L954.499 649.744C953.491 649.408 952.608 648.747 951.976 647.854C951.344 646.961 950.994 645.882 950.977 644.769L950.662 625.717C950.931 617.226 945.718 611.368 945.718 611.368L960.674 610.605L945.791 590.685Z" fill="url(#paint3_linear_321_3)"/>
<path d="M937.944 670.109C937.092 671.285 947.122 672.834 952.189 670.263C952.189 670.263 959.216 657.396 959.216 650.77C959.216 650.77 958.655 649.422 954.531 649.729C954.531 649.729 952.171 664.961 949.683 666.669C947.195 668.377 942.715 666.842 942.715 666.842C942.715 666.842 939.179 668.397 937.944 670.109Z" fill="#111827"/>
<path d="M958.792 611.656C958.71 611.507 942.692 609.626 942.692 609.626C942.692 609.626 943.216 614.755 941.576 621.812C939.936 628.869 916.418 659.459 916.418 659.459L918.883 667.691C911.259 670.488 903.759 670.934 896.377 669.13L911.66 659.473C911.66 659.473 925.964 608.139 934.727 598.995L950.785 593.146L958.792 611.656Z" fill="url(#paint4_linear_321_3)"/>
<path d="M994.718 581.791C994.718 581.791 1003.95 596.246 1004.71 602.838C1005.46 609.429 1002.18 612.111 992.494 612.553C982.811 612.994 956.951 612.985 956.951 612.985L934.882 593.132C934.882 593.132 950.963 587.092 955.146 585.384C959.33 583.676 994.718 581.791 994.718 581.791Z" fill="url(#paint5_linear_321_3)"/>
<path d="M969.756 579.876C969.756 579.876 959.011 569.101 953.72 561.967C952.312 560.064 951.356 557.834 950.932 555.463C950.508 553.092 950.628 550.649 951.282 548.337C953.697 539.769 957.99 530.898 958.382 529.516C958.983 527.396 971.036 527.487 971.036 527.487C971.036 527.487 994.732 543.688 1004.07 571.145L993.588 574.575C993.588 574.575 987.395 563.637 981.284 556.685C981.284 556.685 991.87 571.409 992.221 577.434L969.756 579.876Z" fill="url(#paint6_linear_321_3)"/>
<path d="M947.86 580.678L955.757 572.666L966.693 577.526C966.693 577.526 977.571 579.296 983.791 577.526L990.015 575.75L1004.08 571.14L1006.29 577.713C1006.56 578.524 1006.58 579.407 1006.33 580.228C1006.08 581.049 1005.59 581.762 1004.92 582.261C1003.8 583.139 1002.61 583.917 1001.37 584.588C999.516 585.442 955.711 583.997 955.711 583.997L947.86 580.678Z" fill="url(#paint7_linear_321_3)"/>
<path d="M1016.85 557.366C1015.97 553.562 1018.35 550.342 1021.1 546.624C1023.08 543.942 1025.32 540.906 1026.52 537.259C1026.81 536.492 1026.93 535.663 1026.86 534.839C1026.8 534.015 1026.55 533.217 1026.15 532.51C1023.59 528.115 1015.1 526.834 1015.01 526.825L1015.06 526.431C1015.42 526.484 1023.82 527.751 1026.45 532.303C1026.89 533.06 1027.15 533.913 1027.22 534.796C1027.29 535.678 1027.17 536.566 1026.86 537.389C1025.64 541.097 1023.38 544.163 1021.39 546.864C1018.7 550.505 1016.38 553.653 1017.22 557.27L1016.85 557.366Z" fill="#FFD43B"/>
<path d="M978.582 622.268H974.422V669.63H978.582V622.268Z" fill="#111827"/>
<path d="M995.652 611.655L958.792 611.656C956.32 611.656 954.317 613.765 954.317 616.367V620.622C954.317 623.224 956.32 625.333 958.792 625.333H995.652C998.124 625.333 1000.13 623.224 1000.13 620.622V616.367C1000.13 613.765 998.124 611.655 995.652 611.655Z" fill="#111827"/>
<path d="M977.744 584.458H977.639L931.829 584.405C931.285 584.405 930.764 584.178 930.379 583.773C929.994 583.368 929.778 582.819 929.778 582.246C929.778 581.674 929.994 581.125 930.379 580.72C930.764 580.315 931.285 580.087 931.829 580.087L977.639 580.14C978.183 580.126 978.71 580.34 979.104 580.735C979.498 581.13 979.726 581.674 979.74 582.246C979.753 582.819 979.55 583.374 979.175 583.788C978.799 584.203 978.283 584.444 977.739 584.458H977.744Z" fill="url(#paint8_linear_321_3)"/>
<path d="M890.649 540.666H928.799C930.177 540.668 931.528 541.081 932.692 541.858C933.857 542.635 934.788 543.744 935.379 545.056L953.014 584.429H905.591C904.706 584.428 903.842 584.146 903.111 583.622C902.38 583.098 901.815 582.354 901.489 581.488L887.819 545.056C887.636 544.569 887.569 544.043 887.624 543.524C887.678 543.004 887.852 542.506 888.131 542.073C888.41 541.64 888.786 541.286 889.224 541.041C889.663 540.795 890.152 540.667 890.649 540.666Z" fill="url(#paint9_linear_321_3)"/>
<path d="M1041.77 586.219C1041.82 585.946 1041.81 585.665 1041.74 585.397C1041.67 585.129 1041.55 584.881 1041.37 584.674C1041.19 584.459 1040.96 584.288 1040.71 584.171C1040.46 584.055 1040.19 583.995 1039.91 583.998H848.758C848.401 583.997 848.049 584.086 847.732 584.258C847.415 584.43 847.141 584.68 846.935 584.986C846.74 585.285 846.624 585.633 846.599 585.995C846.574 586.357 846.641 586.719 846.793 587.044L848.867 591.472C849.116 591.979 849.494 592.403 849.96 592.697C850.425 592.99 850.959 593.141 851.501 593.132H1038.6C1039.1 593.144 1039.59 592.976 1039.98 592.656C1040.37 592.337 1040.65 591.885 1040.76 591.376L1041.77 586.219Z" fill="url(#paint10_linear_321_3)"/>
<path d="M859.471 679.474C859.243 679.474 859.018 679.423 858.81 679.325C858.392 679.129 858.065 678.766 857.9 678.316C857.735 677.867 857.746 677.367 857.93 676.926L893.114 588.828C893.196 588.611 893.319 588.414 893.475 588.248C893.631 588.081 893.817 587.949 894.022 587.86C894.227 587.771 894.447 587.725 894.669 587.727C894.891 587.728 895.111 587.777 895.315 587.869C895.726 588.066 896.048 588.425 896.213 588.868C896.377 589.312 896.37 589.805 896.194 590.244L861.011 678.346C860.891 678.675 860.68 678.958 860.405 679.159C860.13 679.36 859.805 679.469 859.471 679.474Z" fill="url(#paint11_linear_321_3)"/>
<path d="M899.106 679.474C898.775 679.473 898.451 679.368 898.176 679.174C897.901 678.979 897.687 678.703 897.561 678.38L862.383 590.278C862.204 589.84 862.195 589.346 862.359 588.902C862.523 588.458 862.845 588.099 863.257 587.903C863.462 587.81 863.682 587.761 863.904 587.759C864.127 587.757 864.347 587.802 864.553 587.892C864.759 587.981 864.945 588.113 865.101 588.28C865.258 588.447 865.381 588.645 865.463 588.863L900.646 676.96C900.831 677.401 900.841 677.901 900.677 678.351C900.512 678.8 900.185 679.163 899.767 679.359C899.557 679.445 899.332 679.485 899.106 679.474Z" fill="url(#paint12_linear_321_3)"/>
<path d="M998.017 679.474C997.788 679.473 997.562 679.423 997.352 679.325C996.935 679.128 996.609 678.765 996.445 678.316C996.281 677.866 996.292 677.367 996.477 676.926L1031.66 588.829C1031.74 588.611 1031.86 588.414 1032.02 588.247C1032.17 588.081 1032.36 587.949 1032.57 587.86C1032.77 587.77 1032.99 587.725 1033.22 587.727C1033.44 587.728 1033.66 587.777 1033.86 587.869C1034.27 588.066 1034.6 588.425 1034.76 588.868C1034.92 589.312 1034.92 589.805 1034.74 590.244L999.557 678.346C999.437 678.675 999.226 678.957 998.951 679.158C998.677 679.359 998.351 679.469 998.017 679.474Z" fill="url(#paint13_linear_321_3)"/>
<path d="M1037.65 679.474C1037.32 679.472 1037 679.367 1036.72 679.172C1036.45 678.978 1036.23 678.702 1036.11 678.38L1000.92 590.278C1000.75 589.839 1000.74 589.346 1000.91 588.902C1001.07 588.459 1001.39 588.1 1001.8 587.903C1002.01 587.81 1002.23 587.761 1002.45 587.759C1002.67 587.757 1002.89 587.802 1003.1 587.892C1003.31 587.981 1003.49 588.113 1003.65 588.28C1003.8 588.447 1003.93 588.645 1004.01 588.863L1039.19 676.96C1039.37 677.401 1039.38 677.9 1039.22 678.35C1039.06 678.799 1038.73 679.162 1038.31 679.359C1038.1 679.445 1037.88 679.485 1037.65 679.474Z" fill="url(#paint14_linear_321_3)"/>
<path d="M917.953 664.918C917.953 664.918 920.605 667.624 918.815 670.637C918.815 670.637 897.78 674.561 892.07 672.781C892.07 672.781 893.255 669.931 899.685 666.688L899.229 667.072C899.105 667.179 899.015 667.324 898.973 667.487C898.93 667.65 898.937 667.823 898.993 667.982C899.049 668.141 899.15 668.277 899.283 668.372C899.416 668.467 899.574 668.516 899.735 668.511C903.955 668.267 912.727 667.451 917.953 664.918Z" fill="#111827"/>
<path d="M956.924 517.685C957.051 518.122 960.195 529.104 960.441 529.329C960.688 529.555 967.341 529.934 970.466 527.684L965.153 515.973L956.924 517.685Z" fill="url(#paint15_linear_321_3)"/>
<path d="M962.095 494.623C962.095 494.623 956.418 497.147 952.558 505.787C948.698 514.428 951.578 518.414 955.201 518.961C958.824 519.508 964.237 519.441 969.97 513.847C975.702 508.253 969.473 491.639 962.095 494.623Z" fill="url(#paint16_linear_321_3)"/>
<path d="M966.11 509.237C966.11 509.237 970.398 496.596 959.731 496.447L957.224 498.289C957.224 498.289 953.319 491.28 959.731 487.936C966.142 484.592 975.702 487.571 978.414 496.663C981.125 505.754 979.544 511.626 975.005 515.973C970.466 520.32 968.598 515.392 968.598 515.392C968.598 515.392 971.068 511.324 970.065 509.156C969.063 506.987 966.739 509.607 966.739 509.607L966.11 509.237Z" fill="url(#paint17_linear_321_3)"/>
<path d="M964.98 511.252C964.98 511.252 967.144 504.742 970.033 507.337C972.923 509.933 967.687 513.349 965.636 514.457L964.98 511.252Z" fill="url(#paint18_linear_321_3)"/>
<path d="M994.718 670.541H958.286C958.286 669.785 958.571 669.061 959.079 668.526C959.587 667.992 960.275 667.691 960.993 667.691H992.011C992.367 667.691 992.719 667.765 993.047 667.908C993.376 668.052 993.674 668.261 993.925 668.526C994.177 668.791 994.376 669.105 994.512 669.451C994.648 669.796 994.718 670.167 994.718 670.541Z" fill="#111827"/>
<path d="M1137.49 657.996C1137.43 658.385 1136.75 664.3 1136.49 666.593C1136.47 666.847 1136.37 667.087 1136.2 667.273C1136.04 667.46 1135.82 667.582 1135.58 667.62C1134.45 667.781 1133.3 667.762 1132.17 667.562C1131.85 667.476 1131.56 667.276 1131.36 666.994C1131.15 666.712 1131.05 666.366 1131.06 666.013V656.729L1137.49 657.996Z" fill="url(#paint19_linear_321_3)"/>
<path d="M1172.22 543.008C1172.22 543.008 1180.15 617.274 1175.75 663.691C1175.75 663.691 1170.46 663.691 1167.81 662.765C1167.81 662.765 1159.57 590.149 1156.87 569.37C1156.86 569.204 1156.78 569.049 1156.67 568.936C1156.55 568.822 1156.4 568.756 1156.24 568.751C1156.08 568.746 1155.92 568.801 1155.8 568.907C1155.68 569.013 1155.59 569.162 1155.57 569.327C1152.28 586.81 1139.35 655.362 1137.79 661.834C1137.79 661.834 1133.39 663.691 1129.86 661.834C1129.86 661.834 1136.91 562.524 1142.21 544.864L1172.22 543.008Z" fill="url(#paint20_linear_321_3)"/>
<path d="M1188.12 456.671C1188.12 456.671 1154.61 451.101 1128.16 458.527L1129.92 487.313C1129.92 487.313 1136.97 527.233 1142.26 544.884C1142.26 544.884 1162.54 548.597 1172.24 543.027C1172.24 543.027 1180.18 492.897 1184.59 485.456C1184.57 485.451 1188.98 465.954 1188.12 456.671Z" fill="url(#paint21_linear_321_3)"/>
<path d="M1164.58 426.364L1168.15 455.063C1168.15 455.063 1158.83 459.573 1152.3 454.867L1153.7 438.075L1164.58 426.364Z" fill="url(#paint22_linear_321_3)"/>
<path d="M1188.12 456.671C1188.12 456.671 1240.14 516.088 1178.86 538.829V534.19C1178.86 534.19 1201.78 513.766 1184.15 485.916C1184.12 485.916 1186.33 459.468 1188.12 456.671Z" fill="url(#paint23_linear_321_3)"/>
<path d="M1178.39 534.656C1178.39 534.656 1170.46 529.086 1166.93 530.942C1163.4 532.799 1163.4 535.582 1163.4 535.582C1163.4 535.582 1165.17 539.295 1167.81 538.369C1170.45 537.443 1176.63 539.295 1179.28 538.369C1179.28 538.369 1180.15 534.656 1178.39 534.656Z" fill="url(#paint24_linear_321_3)"/>
<path d="M1092.61 431.363L1103.8 435.331C1105.17 435.763 1106.08 437.202 1106.2 439.035L1105.62 458.705C1105.8 461.785 1103.39 464.495 1101.11 463.776L1092.13 460.557C1091.26 460.278 1090.68 459.314 1090.67 458.119L1090.48 433.652C1090.46 432.212 1091.57 431.032 1092.61 431.363Z" fill="url(#paint25_linear_321_3)"/>
<path d="M1090.48 456.671C1090.48 456.671 1086.97 444.855 1088.75 442.864C1090.54 440.873 1094.08 435.384 1094.32 439.87C1094.55 444.356 1096.7 463.747 1090.48 456.671Z" fill="url(#paint26_linear_321_3)"/>
<path d="M1144.06 421.514C1144.01 421.855 1147.99 444.298 1147.99 444.298L1160.12 441.631L1159.35 419.768C1159.35 419.768 1144.94 415.81 1144.06 421.514Z" fill="url(#paint27_linear_321_3)"/>
<path d="M1155.72 423.327C1155.95 423.476 1156.15 423.679 1156.3 423.92C1156.44 424.161 1156.54 424.434 1156.57 424.719L1157.81 436.026C1157.84 436.197 1157.84 436.37 1157.81 436.54C1157.67 437.499 1156.96 440.431 1154.08 439.519C1151.63 438.742 1149.37 438.08 1147.71 438.373C1147.47 438.417 1147.25 438.51 1147.06 438.645C1146.86 438.781 1146.69 438.956 1146.56 439.161C1146.43 439.366 1146.33 439.596 1146.29 439.839C1146.24 440.081 1146.24 440.332 1146.28 440.575C1146.88 443.961 1147.71 447.296 1148.77 450.554C1148.93 450.993 1149.23 451.355 1149.63 451.569C1150.03 451.782 1150.48 451.83 1150.91 451.705C1153.26 451.019 1157.81 449.536 1161.28 447.45C1161.56 447.283 1161.8 447.038 1161.96 446.743C1162.12 446.447 1162.2 446.111 1162.19 445.77C1162.12 442.729 1161.95 434.203 1162.26 431.785C1162.54 429.54 1165.11 428.216 1166.36 427.707C1166.59 427.612 1166.79 427.468 1166.97 427.284C1167.14 427.1 1167.28 426.88 1167.37 426.638C1167.91 425.17 1168.52 422.118 1164.9 420.713C1164.47 420.536 1164.12 420.19 1163.93 419.748C1163.74 419.306 1163.71 418.802 1163.86 418.343C1164.43 416.635 1164.58 414.154 1161.66 412.71C1158.74 411.266 1156.41 412.758 1155.1 414.116C1154.82 414.415 1154.45 414.61 1154.06 414.672C1153.66 414.734 1153.26 414.66 1152.9 414.461C1152.73 414.354 1152.53 414.298 1152.32 414.298C1152.12 414.298 1151.92 414.354 1151.74 414.461C1151.53 414.573 1151.31 414.641 1151.08 414.661C1150.86 414.682 1150.62 414.654 1150.41 414.58C1150.19 414.506 1149.99 414.387 1149.81 414.23C1149.64 414.073 1149.49 413.881 1149.39 413.665C1148.65 412.087 1147.15 410.46 1144.19 410.94C1138.76 411.818 1138.05 418.136 1139.42 421.85C1140.79 425.563 1146.63 424.248 1149.57 422.454C1151.69 421.087 1154.42 422.497 1155.72 423.327Z" fill="url(#paint28_linear_321_3)"/>
<path d="M1162.06 435.585C1162.06 435.585 1160.52 429.349 1162.84 427.804C1165.15 426.259 1168.52 427.132 1167.7 431.872C1166.7 437.763 1162.06 435.585 1162.06 435.585Z" fill="url(#paint29_linear_321_3)"/>
<path d="M1138.36 418.07C1138.32 418.07 1138.29 418.059 1138.26 418.038C1138.23 418.018 1138.2 417.989 1138.19 417.954C1136.21 413.512 1140.82 409.966 1140.86 409.928C1140.9 409.906 1140.95 409.899 1140.99 409.911C1141.04 409.922 1141.08 409.951 1141.11 409.991C1141.13 410.03 1141.14 410.079 1141.14 410.128C1141.13 410.176 1141.11 410.221 1141.08 410.254C1141.04 410.288 1136.69 413.646 1138.53 417.786C1138.54 417.81 1138.54 417.836 1138.55 417.862C1138.55 417.888 1138.54 417.914 1138.54 417.939C1138.53 417.963 1138.51 417.986 1138.5 418.005C1138.48 418.024 1138.46 418.039 1138.44 418.05C1138.41 418.063 1138.39 418.07 1138.36 418.07Z" fill="white"/>
<path d="M1113.89 677.906C1113.92 677.842 1113.95 677.781 1113.98 677.724C1116.04 674.701 1121.28 668.685 1131.61 666.075L1136.57 665.907C1136.57 665.907 1138.77 669.952 1138.82 677.421C1137.68 677.901 1135.49 678.434 1131.26 678.558C1124.71 678.765 1116.94 678.17 1113.89 677.906Z" fill="url(#paint30_linear_321_3)"/>
<path d="M1127.97 458.508C1127.97 458.508 1117.22 469.245 1113.66 488.32C1110.11 507.396 1101.67 461.353 1101.67 461.353H1093.14C1093.14 461.353 1089.92 508.801 1114 512.572C1116.26 512.928 1118.56 512.651 1120.68 511.768C1122.8 510.885 1124.65 509.428 1126.06 507.544C1130.46 501.667 1137.32 491.233 1138.98 481.244C1137.53 465.551 1127.97 458.508 1127.97 458.508Z" fill="url(#paint31_linear_321_3)"/>
<path d="M1182.57 678.237C1182.58 678.093 1182.56 677.95 1182.53 677.81C1180.51 669.395 1172.27 665.077 1172.27 665.077L1168.3 665.408C1166.02 672.825 1164.55 676.443 1164.92 678.477L1164.96 678.64C1170.83 679.085 1176.73 678.95 1182.57 678.237Z" fill="url(#paint32_linear_321_3)"/>
<path d="M1164.96 676.274C1165.03 676.597 1165.19 676.893 1165.41 677.129C1165.63 677.365 1165.91 677.532 1166.22 677.613C1170.87 678.644 1178.27 677.814 1181.38 677.387C1181.71 677.325 1182.02 677.138 1182.24 676.86C1182.46 676.583 1182.58 676.232 1182.57 675.871C1176.73 676.584 1170.83 676.719 1164.96 676.274Z" fill="url(#paint33_linear_321_3)"/>
<path d="M1175.53 658.567L1173.8 667.37C1173.75 667.672 1173.61 667.949 1173.4 668.162C1173.19 668.374 1172.92 668.51 1172.63 668.551C1171.74 668.647 1170.83 668.633 1169.94 668.507C1169.72 668.463 1169.5 668.373 1169.31 668.242C1169.12 668.111 1168.96 667.942 1168.83 667.744C1168.71 667.547 1168.62 667.325 1168.57 667.091C1168.53 666.857 1168.53 666.616 1168.57 666.382L1169.78 658.567H1175.53Z" fill="url(#paint34_linear_321_3)"/>
<path d="M1131.26 676.202C1135.49 676.077 1137.68 675.549 1138.82 675.065C1138.82 675.506 1138.82 675.957 1138.82 676.427C1138.82 676.659 1138.73 676.881 1138.58 677.045C1138.42 677.209 1138.21 677.303 1137.99 677.305L1114.75 677.147C1114.58 677.132 1114.41 677.073 1114.26 676.973C1114.11 676.873 1113.99 676.736 1113.91 676.575C1113.82 676.414 1113.78 676.233 1113.78 676.049C1113.78 675.865 1113.82 675.684 1113.9 675.521C1116.94 675.799 1124.71 676.394 1131.26 676.202Z" fill="url(#paint35_linear_321_3)"/>
<g filter="url(#filter1_d_321_3)">
<path d="M1219.61 34.223C1219.57 75.9249 1219.27 219.75 1216.89 270.666C1216.64 276.056 1213.04 280.307 1208.65 280.38C1186.96 280.75 1107.45 281.114 1072.06 278.456C1064.68 277.895 1058.96 270.397 1059 261.295C1059.18 217.552 1060.15 94.4541 1065.2 38.1768C1065.8 31.4471 1070.22 26.1586 1075.7 25.609C1099.37 23.2536 1179.31 18.0044 1209.88 21.1618C1215.4 21.7338 1219.61 27.4092 1219.61 34.223Z" fill="url(#paint36_linear_321_3)"/>
<path d="M1209.66 46.7852C1210.11 80.4338 1211.44 192.456 1209.4 233.81C1209.11 239.855 1205.14 244.656 1200.22 244.891C1179.98 245.878 1111.01 247.482 1081.43 243.871C1076.1 243.22 1072.03 237.808 1071.89 231.219C1071.1 196.864 1068.99 92.5585 1070.96 51.6642C1071.28 45.142 1075.5 39.8872 1080.79 39.4442C1102.7 37.5374 1176.04 33.494 1201.18 35.7709C1205.93 36.2027 1209.59 40.9584 1209.66 46.7852Z" fill="url(#paint37_linear_321_3)"/>
<path d="M1157.86 27.9308C1157.88 28.5034 1157.7 29.0645 1157.35 29.5021C1157 29.9398 1156.5 30.2218 1155.96 30.2918C1150.84 30.4993 1136.4 31.0994 1129.94 31.4134C1128.67 31.4751 1127.7 30.0451 1127.98 28.5141L1128.02 28.2504C1128.08 27.7731 1128.29 27.3289 1128.61 26.9856C1128.93 26.6424 1129.35 26.4189 1129.8 26.3493C1134.17 25.9624 1147.34 24.9024 1156.04 25.4913C1157.09 25.5586 1157.89 26.6409 1157.86 27.9308Z" fill="url(#paint38_linear_321_3)"/>
<path d="M1140.34 194.177C1168.41 194.177 1191.16 170.224 1191.16 140.676C1191.16 111.128 1168.41 87.1746 1140.34 87.1746C1112.28 87.1746 1089.53 111.128 1089.53 140.676C1089.53 170.224 1112.28 194.177 1140.34 194.177Z" fill="url(#paint39_linear_321_3)"/>
<path d="M1171.61 154.657C1171.23 153.247 1170.55 151.948 1169.61 150.86C1168.68 149.773 1167.52 148.927 1166.23 148.387L1162.57 146.862C1161.14 146.264 1159.56 146.179 1158.08 146.62C1156.6 147.061 1155.3 148.003 1154.37 149.301L1151.12 153.878C1146.01 154.035 1140.11 152.027 1134.87 147.905C1129.96 144.03 1126.57 139.039 1125.1 134.137C1125.09 134.103 1125.09 134.066 1125.1 134.031C1125.12 133.997 1125.14 133.967 1125.16 133.947C1125.19 133.926 1125.23 133.915 1125.26 133.916C1125.29 133.917 1125.33 133.93 1125.35 133.952L1128.29 129.824C1129.35 128.333 1129.92 126.511 1129.89 124.647C1129.86 122.782 1129.25 120.979 1128.14 119.522L1125.71 116.309C1124.84 115.154 1123.73 114.224 1122.46 113.593C1121.2 112.961 1119.81 112.644 1118.41 112.665C1117.01 112.687 1115.63 113.047 1114.38 113.718C1113.13 114.388 1112.05 115.351 1111.21 116.533C1110.32 117.776 1109.67 119.181 1109.28 120.678C1106.58 130.705 1114.25 145.858 1128.4 157.013C1142.55 168.167 1158.51 171.627 1166.89 166.092C1168.15 165.272 1169.25 164.213 1170.14 162.968C1170.98 161.795 1171.54 160.434 1171.8 158.993C1172.05 157.551 1171.99 156.068 1171.61 154.657Z" fill="url(#paint40_linear_321_3)"/>
<path d="M1079.86 271.048C1075.74 271.046 1071.78 269.328 1068.85 266.268C1065.93 263.208 1064.27 259.054 1064.24 254.711V226.8C1064.24 226.651 1064.29 226.508 1064.39 226.403C1064.49 226.298 1064.63 226.239 1064.77 226.239C1064.91 226.239 1065.05 226.298 1065.15 226.403C1065.25 226.508 1065.3 226.651 1065.3 226.8V254.711C1065.34 258.741 1066.88 262.593 1069.6 265.429C1072.32 268.265 1075.99 269.855 1079.82 269.853C1079.97 269.853 1080.12 269.915 1080.23 270.026C1080.33 270.138 1080.39 270.289 1080.4 270.447C1080.4 270.524 1080.39 270.602 1080.37 270.674C1080.34 270.747 1080.31 270.813 1080.26 270.87C1080.21 270.926 1080.14 270.971 1080.08 271.001C1080.01 271.032 1079.94 271.048 1079.86 271.048Z" fill="url(#paint41_linear_321_3)"/>
</g>
<path d="M401.635 662.356C401.635 662.356 400.723 667.715 400.29 673.021C400.251 673.513 400.307 674.008 400.455 674.477C400.602 674.945 400.838 675.377 401.149 675.747C401.459 676.117 401.837 676.417 402.261 676.629C402.684 676.84 403.144 676.96 403.612 676.979C410.325 677.277 424.679 677.848 429.832 677.608C430.012 677.599 430.187 677.544 430.343 677.449C430.499 677.354 430.631 677.221 430.728 677.062C430.826 676.902 430.885 676.72 430.902 676.532C430.919 676.343 430.893 676.153 430.826 675.977C430.587 675.339 430.123 674.824 429.532 674.537L405.836 663.062L401.635 662.356Z" fill="url(#paint42_linear_321_3)"/>
<path d="M400.896 659.204L401.616 665.618C401.616 665.618 405.772 667.653 408.607 665.359L406.889 658.216L400.896 659.204Z" fill="url(#paint43_linear_321_3)"/>
<path d="M401.439 538.68C401.129 540.354 399.762 622.225 408.078 658.912C408.143 659.2 408.109 659.502 407.981 659.766C407.853 660.03 407.641 660.237 407.381 660.351C405.218 661.228 402.931 661.715 400.614 661.79C400.162 661.806 399.718 661.664 399.352 661.385C398.986 661.106 398.718 660.707 398.591 660.25C396.217 651.739 384.829 609.089 383.344 568.348C381.685 522.819 383.344 566.798 383.344 566.798L384.319 538.656L401.439 538.68Z" fill="url(#paint44_linear_321_3)"/>
<path d="M374.357 665.153C374.357 665.153 372.927 667.859 371.537 675.046C371.477 675.352 371.479 675.668 371.543 675.974C371.607 676.279 371.731 676.567 371.907 676.819C372.083 677.071 372.307 677.281 372.565 677.436C372.823 677.591 373.109 677.687 373.405 677.718C375.62 677.948 379.028 678.241 381.762 678.222C382.06 678.221 382.354 678.154 382.625 678.026C382.896 677.897 383.139 677.709 383.336 677.475C383.534 677.241 383.682 676.965 383.771 676.667C383.86 676.368 383.889 676.053 383.854 675.741C383.553 673.117 382.61 668.814 379.693 665.456L374.357 665.153Z" fill="url(#paint45_linear_321_3)"/>
<path d="M373.1 656.906L374.786 666.602C374.786 666.602 376.458 667.907 379.757 666.962L378.951 656.527L373.1 656.906Z" fill="url(#paint46_linear_321_3)"/>
<path d="M368.538 541.189C361.74 584.367 370.015 647.954 372.804 660.394C372.884 660.769 373.069 661.109 373.334 661.371C373.6 661.634 373.934 661.807 374.294 661.867C376.059 662.198 377.872 662.123 379.607 661.647C379.947 661.541 380.248 661.327 380.466 661.032C380.684 660.738 380.809 660.379 380.824 660.006C381.197 649.931 380.523 588.2 386.857 563.795C387.179 562.559 387.897 561.477 388.889 560.734L401.193 551.533L402.136 536.66L368.538 541.189Z" fill="url(#paint47_linear_321_3)"/>
<path d="M411.86 459.342C391.487 458.987 369.003 464.975 369.003 464.975C362.933 502.281 367.941 545.31 367.941 545.31C383.717 549.666 401.507 542.647 401.507 542.647C404.127 527.055 416.362 483.157 416.362 483.157C426.315 481.857 434.517 478.84 441.27 474.834C436.116 468.549 433.688 460.551 432.635 455.821C425.431 458.191 418.144 459.453 411.86 459.342Z" fill="url(#paint48_linear_321_3)"/>
<path d="M472.038 427.745C471.523 427.027 470.798 426.508 469.974 426.266C469.151 426.024 468.275 426.074 467.481 426.407C464.483 439.739 448.762 450.548 432.612 455.835C433.665 460.566 436.094 468.563 441.248 474.848C468.074 458.982 472.038 427.745 472.038 427.745Z" fill="url(#paint49_linear_321_3)"/>
<path d="M471.551 428.393C471.76 429.094 469.336 430.164 467.905 427.295C467.855 425.923 467.062 420.036 467.841 418.918C471.993 412.955 480.045 405.485 480.045 405.485C480.424 405.826 480.661 406.311 480.707 406.834C480.752 407.357 480.601 407.879 480.286 408.287L476.381 412.571C477.196 414.125 478.204 415.449 478.659 417.316C479.001 418.751 478.806 420.27 478.112 421.557C477.348 423.041 476.512 424.482 475.606 425.875C475.154 426.589 474.555 427.187 473.853 427.623C473.15 428.06 472.363 428.323 471.551 428.393Z" fill="url(#paint50_linear_321_3)"/>
<path d="M474.677 415.358L471.118 418.534L469.997 421.701L473.187 425.404C473.187 425.404 474.253 419.129 475.046 417.772C475.839 416.414 475.424 415.747 474.677 415.358Z" fill="url(#paint51_linear_321_3)"/>
<path d="M376.818 485.743L369.003 464.975C369.003 464.975 349.974 478.585 346.843 495.847C352.427 496.316 357.872 497.922 362.874 500.577C365.763 493.731 376.818 485.743 376.818 485.743Z" fill="url(#paint52_linear_321_3)"/>
<path d="M391.222 441.927L384.743 461.664C384.691 461.823 384.694 461.996 384.75 462.153C384.807 462.309 384.914 462.44 385.052 462.523C386.82 463.55 393.186 466.524 400.856 461.4C401.252 461.139 401.59 460.788 401.843 460.373C402.097 459.959 402.261 459.49 402.323 459.002L404.419 441.917L391.222 441.927Z" fill="url(#paint53_linear_321_3)"/>
<path d="M405.326 423.648C405.326 423.648 412.444 437.758 411.532 443.458C410.621 449.157 401.799 448.735 394.093 444.12L388.711 428.883L405.326 423.648Z" fill="url(#paint54_linear_321_3)"/>
<path d="M394.435 436.635C394.508 436.601 394.574 436.551 394.627 436.488C394.68 436.425 394.72 436.35 394.743 436.27C394.766 436.189 394.772 436.104 394.76 436.02C394.749 435.937 394.72 435.857 394.676 435.786C394.107 434.87 393.036 432.999 392.694 431.358C392.694 431.358 391.414 430.494 395.952 429.353C400.491 428.211 407.253 426.436 408.675 422.367C410.065 418.404 406.419 408.454 400.609 416.38C400.558 416.451 400.492 416.508 400.416 416.547C400.34 416.587 400.256 416.607 400.172 416.607C400.087 416.607 400.004 416.587 399.928 416.547C399.852 416.508 399.786 416.451 399.734 416.38C398.782 415.075 396.276 412.364 392.799 414.01C389.545 415.545 389.176 418.059 389.222 419.321C389.225 419.408 389.21 419.495 389.177 419.575C389.144 419.655 389.095 419.726 389.032 419.784C388.97 419.841 388.895 419.882 388.815 419.905C388.736 419.928 388.652 419.932 388.57 419.916C386.925 419.585 382.979 419.302 381.133 423.562C379.616 427.078 380.605 429.065 381.503 430.039C381.57 430.11 381.618 430.198 381.643 430.294C381.668 430.391 381.668 430.493 381.644 430.59C381.62 430.686 381.573 430.775 381.506 430.847C381.44 430.918 381.357 430.971 381.266 430.998C380.186 431.348 378.787 432.313 378.928 434.98C379.119 438.669 383.029 438.338 384.15 438.175C384.24 438.16 384.332 438.169 384.418 438.201C384.504 438.233 384.581 438.287 384.642 438.358C385.599 439.471 389.905 444.201 394.567 444.772C394.66 444.782 394.755 444.768 394.841 444.73C394.928 444.691 395.004 444.63 395.062 444.553C395.121 444.475 395.159 444.383 395.175 444.286C395.19 444.188 395.182 444.088 395.15 443.995L393.132 437.825C393.088 437.687 393.094 437.536 393.15 437.402C393.205 437.268 393.306 437.161 393.432 437.101L394.435 436.635Z" fill="url(#paint55_linear_321_3)"/>
<path d="M395.246 437.513C395.246 437.513 390.179 433.853 389.805 436.933C389.432 440.013 394.362 441.399 396.814 440.253L395.246 437.513Z" fill="url(#paint56_linear_321_3)"/>
<path d="M346.975 496.015C346.975 496.015 333.97 527.199 365.763 531.771L370.101 527.967C370.101 527.967 354.203 518.851 362.874 500.577C362.87 500.577 353.478 492.21 346.975 496.015Z" fill="url(#paint57_linear_321_3)"/>
<path d="M369.81 512.432L381.006 516.405C382.373 516.832 383.284 518.276 383.403 520.103L382.82 539.774C383.002 542.854 380.591 545.564 378.313 544.845L369.336 541.625C368.465 541.347 367.882 540.383 367.873 539.188L367.677 514.721C367.663 513.286 368.794 512.106 369.81 512.432Z" fill="#09005D"/>
<path d="M366.916 535.777C366.611 535.422 364.519 531.392 365.061 526C365.604 520.607 364.606 518.17 366.984 518.381C369.363 518.592 371.35 519.015 371.086 521.668C370.821 524.321 371.564 541.16 366.916 535.777Z" fill="url(#paint58_linear_321_3)"/>
<path d="M0 679L1251 679" stroke="#FDCC14" stroke-width="5" stroke-miterlimit="10"/>
<defs>
<filter id="filter0_d_321_3" x="511.435" y="98" width="529.868" height="487.069" filterUnits="userSpaceOnUse" color-interpolation-filters="sRGB">
<feFlood flood-opacity="0" result="BackgroundImageFix"/>
<feColorMatrix in="SourceAlpha" type="matrix" values="0 0 0 0 0 0 0 0 0 0 0 0 0 0 0 0 0 0 127 0" result="hardAlpha"/>
<feOffset dy="4"/>
<feGaussianBlur stdDeviation="7"/>
<feComposite in2="hardAlpha" operator="out"/>
<feColorMatrix type="matrix" values="0 0 0 0 0 0 0 0 0 0 0 0 0 0 0 0 0 0 1 0"/>
<feBlend mode="normal" in2="BackgroundImageFix" result="effect1_dropShadow_321_3"/>
<feBlend mode="normal" in="SourceGraphic" in2="effect1_dropShadow_321_3" result="shape"/>
</filter>
<filter id="filter1_d_321_3" x="1035" y="0.178223" width="208.606" height="308.458" filterUnits="userSpaceOnUse" color-interpolation-filters="sRGB">
<feFlood flood-opacity="0" result="BackgroundImageFix"/>
<feColorMatrix in="SourceAlpha" type="matrix" values="0 0 0 0 0 0 0 0 0 0 0 0 0 0 0 0 0 0 127 0" result="hardAlpha"/>
<feOffset dy="4"/>
<feGaussianBlur stdDeviation="12"/>
<feComposite in2="hardAlpha" operator="out"/>
<feColorMatrix type="matrix" values="0 0 0 0 0 0 0 0 0 0 0 0 0 0 0 0 0 0 0.7 0"/>
<feBlend mode="normal" in2="BackgroundImageFix" result="effect1_dropShadow_321_3"/>
<feBlend mode="normal" in="SourceGraphic" in2="effect1_dropShadow_321_3" result="shape"/>
</filter>
<linearGradient id="paint0_linear_321_3" x1="766.612" y1="-57.055" x2="830.919" y2="904.519" gradientUnits="userSpaceOnUse">
<stop stop-color="#F1610A"/>
<stop offset="1" stop-color="#FFD43B"/>
</linearGradient>
<linearGradient id="paint1_linear_321_3" x1="766.412" y1="-30.8681" x2="824.876" y2="869.903" gradientUnits="userSpaceOnUse">
<stop stop-color="#FFC13D"/>
<stop offset="1" stop-color="#E9605A"/>
</linearGradient>
<linearGradient id="paint2_linear_321_3" x1="546.244" y1="233.441" x2="1050.8" y2="820.142" gradientUnits="userSpaceOnUse">
<stop stop-color="#09005D"/>
<stop offset="1" stop-color="#1A0F91"/>
</linearGradient>
<linearGradient id="paint3_linear_321_3" x1="1018.01" y1="678.128" x2="1001.93" y2="494.391" gradientUnits="userSpaceOnUse">
<stop stop-color="#FF928E"/>
<stop offset="1" stop-color="#FEB3B1"/>
</linearGradient>
<linearGradient id="paint4_linear_321_3" x1="1118.24" y1="247.119" x2="1037.05" y2="481.361" gradientUnits="userSpaceOnUse">
<stop stop-color="#FF928E"/>
<stop offset="1" stop-color="#FEB3B1"/>
</linearGradient>
<linearGradient id="paint5_linear_321_3" x1="935.715" y1="541.107" x2="1222.47" y2="781.239" gradientUnits="userSpaceOnUse">
<stop stop-color="#09005D"/>
<stop offset="1" stop-color="#1A0F91"/>
</linearGradient>
<linearGradient id="paint6_linear_321_3" x1="901.437" y1="519.284" x2="1035.17" y2="793.43" gradientUnits="userSpaceOnUse">
<stop stop-color="#D5E240"/>
<stop offset="1" stop-color="#FF994F"/>
</linearGradient>
<linearGradient id="paint7_linear_321_3" x1="1150.16" y1="654.93" x2="909.722" y2="650.126" gradientUnits="userSpaceOnUse">
<stop stop-color="#FF928E"/>
<stop offset="1" stop-color="#FEB3B1"/>
</linearGradient>
<linearGradient id="paint8_linear_321_3" x1="1064.09" y1="115.496" x2="906.856" y2="119.826" gradientUnits="userSpaceOnUse">
<stop stop-color="#09005D"/>
<stop offset="1" stop-color="#1A0F91"/>
</linearGradient>
<linearGradient id="paint9_linear_321_3" x1="870.46" y1="665.35" x2="1021.41" y2="598.575" gradientUnits="userSpaceOnUse">
<stop stop-color="#09005D"/>
<stop offset="1" stop-color="#1A0F91"/>
</linearGradient>
<linearGradient id="paint10_linear_321_3" x1="846.579" y1="582.877" x2="1041.8" y2="582.877" gradientUnits="userSpaceOnUse">
<stop stop-color="#DAE3FE"/>
<stop offset="1" stop-color="#E9EFFD"/>
</linearGradient>
<linearGradient id="paint11_linear_321_3" x1="846.644" y1="582.911" x2="1041.8" y2="582.911" gradientUnits="userSpaceOnUse">
<stop stop-color="#DAE3FE"/>
<stop offset="1" stop-color="#E9EFFD"/>
</linearGradient>
<linearGradient id="paint12_linear_321_3" x1="846.59" y1="582.875" x2="1041.75" y2="582.875" gradientUnits="userSpaceOnUse">
<stop stop-color="#DAE3FE"/>
<stop offset="1" stop-color="#E9EFFD"/>
</linearGradient>
<linearGradient id="paint13_linear_321_3" x1="846.648" y1="582.911" x2="1041.8" y2="582.911" gradientUnits="userSpaceOnUse">
<stop stop-color="#DAE3FE"/>
<stop offset="1" stop-color="#E9EFFD"/>
</linearGradient>
<linearGradient id="paint14_linear_321_3" x1="846.595" y1="582.875" x2="1041.75" y2="582.875" gradientUnits="userSpaceOnUse">
<stop stop-color="#DAE3FE"/>
<stop offset="1" stop-color="#E9EFFD"/>
</linearGradient>
<linearGradient id="paint15_linear_321_3" x1="858.943" y1="382.991" x2="1089.44" y2="924.213" gradientUnits="userSpaceOnUse">
<stop stop-color="#FF928E"/>
<stop offset="1" stop-color="#FEB3B1"/>
</linearGradient>
<linearGradient id="paint16_linear_321_3" x1="-15257.6" y1="2095.33" x2="-15045.7" y2="2070.83" gradientUnits="userSpaceOnUse">
<stop stop-color="#FF928E"/>
<stop offset="1" stop-color="#FEB3B1"/>
</linearGradient>
<linearGradient id="paint17_linear_321_3" x1="-122.209" y1="-289.393" x2="1353.2" y2="1590.4" gradientUnits="userSpaceOnUse">
<stop stop-color="#09005D"/>
<stop offset="1" stop-color="#1A0F91"/>
</linearGradient>
<linearGradient id="paint18_linear_321_3" x1="-58225.8" y1="5471.86" x2="-57457.2" y2="5371.54" gradientUnits="userSpaceOnUse">
<stop stop-color="#FF928E"/>
<stop offset="1" stop-color="#FEB3B1"/>
</linearGradient>
<linearGradient id="paint19_linear_321_3" x1="1132.65" y1="349.83" x2="1248.4" y2="1084.55" gradientUnits="userSpaceOnUse">
<stop stop-color="#FF928E"/>
<stop offset="1" stop-color="#FEB3B1"/>
</linearGradient>
<linearGradient id="paint20_linear_321_3" x1="1149.44" y1="655.735" x2="1140.87" y2="363.953" gradientUnits="userSpaceOnUse">
<stop stop-color="#09005D"/>
<stop offset="1" stop-color="#04002C"/>
</linearGradient>
<linearGradient id="paint21_linear_321_3" x1="1092.7" y1="97.493" x2="1370.69" y2="850.526" gradientUnits="userSpaceOnUse">
<stop stop-color="#E69122"/>
<stop offset="1" stop-color="#F1610A"/>
</linearGradient>
<linearGradient id="paint22_linear_321_3" x1="1153.49" y1="390.324" x2="1143.25" y2="766.441" gradientUnits="userSpaceOnUse">
<stop stop-color="#FF928E"/>
<stop offset="1" stop-color="#FEB3B1"/>
</linearGradient>
<linearGradient id="paint23_linear_321_3" x1="987.147" y1="36.3808" x2="1173.85" y2="950.473" gradientUnits="userSpaceOnUse">
<stop stop-color="#E69122"/>
<stop offset="1" stop-color="#F1610A"/>
</linearGradient>
<linearGradient id="paint24_linear_321_3" x1="1094.9" y1="369.298" x2="1448.53" y2="433.765" gradientUnits="userSpaceOnUse">
<stop stop-color="#FF928E"/>
<stop offset="1" stop-color="#FEB3B1"/>
</linearGradient>
<linearGradient id="paint25_linear_321_3" x1="1151.88" y1="416.289" x2="1028.27" y2="462.292" gradientUnits="userSpaceOnUse">
<stop stop-color="#09005D"/>
<stop offset="1" stop-color="#1A0F91"/>
</linearGradient>
<linearGradient id="paint26_linear_321_3" x1="1139.36" y1="411.971" x2="1152.1" y2="679.844" gradientUnits="userSpaceOnUse">
<stop stop-color="#FF928E"/>
<stop offset="1" stop-color="#FEB3B1"/>
</linearGradient>
<linearGradient id="paint27_linear_321_3" x1="1389.78" y1="445.261" x2="1071.4" y2="501.829" gradientUnits="userSpaceOnUse">
<stop stop-color="#FF928E"/>
<stop offset="1" stop-color="#FEB3B1"/>
</linearGradient>
<linearGradient id="paint28_linear_321_3" x1="1231.54" y1="542.55" x2="1107.13" y2="530.467" gradientUnits="userSpaceOnUse">
<stop stop-color="#09005D"/>
<stop offset="1" stop-color="#1A0F91"/>
</linearGradient>
<linearGradient id="paint29_linear_321_3" x1="1579.9" y1="1176.78" x2="1038.86" y2="712.837" gradientUnits="userSpaceOnUse">
<stop stop-color="#FF928E"/>
<stop offset="1" stop-color="#FEB3B1"/>
</linearGradient>
<linearGradient id="paint30_linear_321_3" x1="1160.36" y1="2299.22" x2="1054.34" y2="1609.39" gradientUnits="userSpaceOnUse">
<stop stop-color="#4042E2"/>
<stop offset="1" stop-color="#4F52FF"/>
</linearGradient>
<linearGradient id="paint31_linear_321_3" x1="1076.82" y1="-84.0434" x2="1637.3" y2="1092.09" gradientUnits="userSpaceOnUse">
<stop stop-color="#E69122"/>
<stop offset="1" stop-color="#F1610A"/>
</linearGradient>
<linearGradient id="paint32_linear_321_3" x1="1136.32" y1="1760.81" x2="1200.75" y2="1118.65" gradientUnits="userSpaceOnUse">
<stop stop-color="#4042E2"/>
<stop offset="1" stop-color="#4F52FF"/>
</linearGradient>
<linearGradient id="paint33_linear_321_3" x1="1392.79" y1="-3070.12" x2="674.006" y2="-3039.63" gradientUnits="userSpaceOnUse">
<stop stop-color="#09005D"/>
<stop offset="1" stop-color="#1A0F91"/>
</linearGradient>
<linearGradient id="paint34_linear_321_3" x1="1125.06" y1="183.58" x2="1284.72" y2="1034.91" gradientUnits="userSpaceOnUse">
<stop stop-color="#FF928E"/>
<stop offset="1" stop-color="#FEB3B1"/>
</linearGradient>
<linearGradient id="paint35_linear_321_3" x1="1110.65" y1="662.903" x2="1176.08" y2="711.702" gradientUnits="userSpaceOnUse">
<stop stop-color="#09005D"/>
<stop offset="1" stop-color="#1A0F91"/>
</linearGradient>
<linearGradient id="paint36_linear_321_3" x1="1138.75" y1="-5.35895" x2="1139.93" y2="289.627" gradientUnits="userSpaceOnUse">
<stop stop-color="#000231"/>
<stop offset="1" stop-color="#0F0E1D"/>
</linearGradient>
<linearGradient id="paint37_linear_321_3" x1="1095.63" y1="70.5116" x2="1523.06" y2="572.345" gradientUnits="userSpaceOnUse">
<stop stop-color="#FEB3B1"/>
<stop offset="1" stop-color="#FDCC14"/>
</linearGradient>
<linearGradient id="paint38_linear_321_3" x1="1059" y1="150.257" x2="1219.59" y2="150.257" gradientUnits="userSpaceOnUse">
<stop stop-color="#4042E2"/>
<stop offset="1" stop-color="#4F52FF"/>
</linearGradient>
<linearGradient id="paint39_linear_321_3" x1="1059" y1="150.408" x2="1219.61" y2="150.408" gradientUnits="userSpaceOnUse">
<stop stop-color="#DAE3FE"/>
<stop offset="1" stop-color="#E9EFFD"/>
</linearGradient>
<linearGradient id="paint40_linear_321_3" x1="1059" y1="150.413" x2="1219.6" y2="150.413" gradientUnits="userSpaceOnUse">
<stop stop-color="#4042E2"/>
<stop offset="1" stop-color="#4F52FF"/>
</linearGradient>
<linearGradient id="paint41_linear_321_3" x1="1064.23" y1="248.626" x2="1080.42" y2="248.626" gradientUnits="userSpaceOnUse">
<stop stop-color="#4042E2"/>
<stop offset="1" stop-color="#4F52FF"/>
</linearGradient>
<linearGradient id="paint42_linear_321_3" x1="472.582" y1="273.516" x2="-318.702" y2="477.83" gradientUnits="userSpaceOnUse">
<stop stop-color="#09005D"/>
<stop offset="1" stop-color="#1A0F91"/>
</linearGradient>
<linearGradient id="paint43_linear_321_3" x1="344.342" y1="541.821" x2="480.714" y2="541.821" gradientUnits="userSpaceOnUse">
<stop stop-color="#FF928E"/>
<stop offset="1" stop-color="#FEB3B1"/>
</linearGradient>
<linearGradient id="paint44_linear_321_3" x1="367.436" y1="663.428" x2="385.181" y2="427.031" gradientUnits="userSpaceOnUse">
<stop stop-color="#09005D"/>
<stop offset="1" stop-color="#04002C"/>
</linearGradient>
<linearGradient id="paint45_linear_321_3" x1="764.288" y1="-200.925" x2="-845.535" y2="677.363" gradientUnits="userSpaceOnUse">
<stop stop-color="#09005D"/>
<stop offset="1" stop-color="#1A0F91"/>
</linearGradient>
<linearGradient id="paint46_linear_321_3" x1="344.342" y1="541.817" x2="480.714" y2="541.817" gradientUnits="userSpaceOnUse">
<stop stop-color="#FF928E"/>
<stop offset="1" stop-color="#FEB3B1"/>
</linearGradient>
<linearGradient id="paint47_linear_321_3" x1="350.851" y1="655.496" x2="375.022" y2="424.604" gradientUnits="userSpaceOnUse">
<stop stop-color="#09005D"/>
<stop offset="1" stop-color="#04002C"/>
</linearGradient>
<linearGradient id="paint48_linear_321_3" x1="215.74" y1="1090.22" x2="-31.3627" y2="1352.05" gradientUnits="userSpaceOnUse">
<stop stop-color="#FE7062"/>
<stop offset="1" stop-color="#FF928E"/>
</linearGradient>
<linearGradient id="paint49_linear_321_3" x1="344.421" y1="541.879" x2="480.714" y2="541.879" gradientUnits="userSpaceOnUse">
<stop stop-color="#FF928E"/>
<stop offset="1" stop-color="#FEB3B1"/>
</linearGradient>
<linearGradient id="paint50_linear_321_3" x1="300.599" y1="843.345" x2="-53.8788" y2="1530.2" gradientUnits="userSpaceOnUse">
<stop stop-color="#FF928E"/>
<stop offset="1" stop-color="#FEB3B1"/>
</linearGradient>
<linearGradient id="paint51_linear_321_3" x1="-442.855" y1="1687.77" x2="1212.9" y2="39.5881" gradientUnits="userSpaceOnUse">
<stop stop-color="#FF928E"/>
<stop offset="1" stop-color="#FEB3B1"/>
</linearGradient>
<linearGradient id="paint52_linear_321_3" x1="-8.75833" y1="1971.27" x2="-640.278" y2="2629.32" gradientUnits="userSpaceOnUse">
<stop stop-color="#FE7062"/>
<stop offset="1" stop-color="#FF928E"/>
</linearGradient>
<linearGradient id="paint53_linear_321_3" x1="412.655" y1="527.165" x2="225.641" y2="1289.67" gradientUnits="userSpaceOnUse">
<stop stop-color="#FF928E"/>
<stop offset="1" stop-color="#FEB3B1"/>
</linearGradient>
<linearGradient id="paint54_linear_321_3" x1="9009.39" y1="6881.86" x2="8654.78" y2="6818.19" gradientUnits="userSpaceOnUse">
<stop stop-color="#FF928E"/>
<stop offset="1" stop-color="#FEB3B1"/>
</linearGradient>
<linearGradient id="paint55_linear_321_3" x1="276.318" y1="-18028.8" x2="259.605" y2="-18874.8" gradientUnits="userSpaceOnUse">
<stop stop-color="#09005D"/>
<stop offset="1" stop-color="#1A0F91"/>
</linearGradient>
<linearGradient id="paint56_linear_321_3" x1="28517.2" y1="31468.6" x2="27341.6" y2="31326.7" gradientUnits="userSpaceOnUse">
<stop stop-color="#FF928E"/>
<stop offset="1" stop-color="#FEB3B1"/>
</linearGradient>
<linearGradient id="paint57_linear_321_3" x1="570.771" y1="728.927" x2="298.369" y2="581.288" gradientUnits="userSpaceOnUse">
<stop stop-color="#FF928E"/>
<stop offset="1" stop-color="#FEB3B1"/>
</linearGradient>
<linearGradient id="paint58_linear_321_3" x1="372.872" y1="523.371" x2="365.075" y2="528.901" gradientUnits="userSpaceOnUse">
<stop stop-color="#FF928E"/>
<stop offset="1" stop-color="#FEB3B1"/>
</linearGradient>
</defs>
</svg>
